<svg xmlns="http://www.w3.org/2000/svg" viewBox="0 0 1024 1024" width="32" height="32">
    <path d="M881 442.4H519.7v148.5h206.4c-8.9 48-35.9 88.6-76.6 115.8-34.4 23-78.3 36.6-129.9 36.6-99.9 0-184.4-67.5-214.6-158.2-7.1-21.2-11-43.7-11-66.9s3.9-45.7 11-66.9c30.2-90.7 114.7-158.2 214.6-158.2 56.3 0 106.8 19.4 146.6 57.4l110-110.1c-66.5-62-153.2-100-256.6-100-149.9 0-279.6 86-342.7 211.4-26 51.8-40.8 110.4-40.8 172.4S151 658.2 177 710c63.1 125.4 192.8 211.4 342.7 211.4 94.2 0 173.2-31.1 231.2-84.6 99.9-92.1 138.8-266 120.1-394.4z"
          fill="#4285F4"/>
</svg> 